<svg width="500" height="250" viewBox="0 0 500 250" fill="none" xmlns="http://www.w3.org/2000/svg">
<path d="M335.207 50.8044C335.207 54.6671 335.207 58.5297 335.207 62.3923C335.207 71.6114 335.207 80.8305 335.207 90.0496C335.207 101.168 335.207 112.286 335.207 123.405C335.207 132.987 335.207 142.569 335.207 152.15C335.207 156.675 335.25 161.177 335.207 165.702C335.207 166.128 335.186 166.555 335.122 167.003C335.228 166.256 335.335 165.488 335.42 164.741C335.314 165.403 335.143 166.022 334.908 166.662C335.186 165.979 335.484 165.296 335.762 164.613C335.463 165.296 335.1 165.936 334.674 166.534C335.122 165.958 335.57 165.381 336.018 164.805C335.548 165.381 335.036 165.894 334.46 166.363C335.036 165.915 335.613 165.467 336.189 165.019C335.591 165.467 334.951 165.83 334.268 166.107C334.951 165.83 335.634 165.531 336.317 165.253C335.698 165.488 335.058 165.659 334.396 165.766C335.143 165.659 335.911 165.552 336.658 165.467C334.844 165.68 332.966 165.552 331.152 165.552C327.034 165.552 322.894 165.552 318.775 165.552C312.586 165.552 306.397 165.552 300.209 165.552C292.654 165.552 285.121 165.552 277.566 165.552C269.286 165.552 261.028 165.552 252.747 165.552C244.403 165.552 236.038 165.552 227.694 165.552C219.904 165.552 212.136 165.552 204.347 165.552C197.753 165.552 191.18 165.552 184.586 165.552C179.912 165.552 175.217 165.552 170.544 165.552C168.388 165.552 166.212 165.552 164.056 165.552C163.587 165.552 163.139 165.531 162.669 165.467C163.416 165.574 164.184 165.68 164.931 165.766C164.27 165.659 163.651 165.488 163.011 165.253C163.694 165.531 164.376 165.83 165.059 166.107C164.376 165.808 163.736 165.446 163.139 165.019C163.715 165.467 164.291 165.915 164.867 166.363C164.291 165.894 163.779 165.381 163.309 164.805C163.758 165.381 164.206 165.958 164.654 166.534C164.206 165.936 163.843 165.296 163.566 164.613C163.843 165.296 164.142 165.979 164.419 166.662C164.184 166.043 164.014 165.403 163.907 164.741C164.014 165.488 164.12 166.256 164.206 167.003C164.035 165.68 164.12 164.314 164.12 162.97C164.12 160.196 164.12 157.421 164.12 154.647C164.12 145.471 164.12 136.273 164.12 127.097C164.12 115.914 164.12 104.732 164.12 93.5281C164.12 83.8822 164.12 74.2576 164.12 64.6117C164.12 60.0449 164.099 55.478 164.12 50.9325C164.12 50.5057 164.142 50.0575 164.206 49.6307C164.099 50.3776 163.992 51.1459 163.907 51.8928C164.014 51.2313 164.184 50.6124 164.419 49.9722C164.142 50.6551 163.843 51.338 163.566 52.0208C163.864 51.338 164.227 50.6977 164.654 50.1002C164.206 50.6764 163.758 51.2526 163.309 51.8288C163.779 51.2526 164.291 50.7404 164.867 50.2709C164.291 50.7191 163.715 51.1672 163.139 51.6154C163.736 51.1672 164.376 50.8044 165.059 50.527C164.376 50.8044 163.694 51.1032 163.011 51.3806C163.63 51.1459 164.27 50.9752 164.931 50.8685C164.184 50.9752 163.416 51.0819 162.669 51.1672C164.483 50.9538 166.361 51.0819 168.175 51.0819C172.294 51.0819 176.434 51.0819 180.553 51.0819C186.741 51.0819 192.93 51.0819 199.119 51.0819C206.673 51.0819 214.207 51.0819 221.761 51.0819C230.041 51.0819 238.3 51.0819 246.58 51.0819C254.924 51.0819 263.29 51.0819 271.634 51.0819C279.423 51.0819 287.191 51.0819 294.98 51.0819C301.574 51.0819 308.147 51.0819 314.742 51.0819C319.415 51.0819 324.11 51.0819 328.784 51.0819C330.939 51.0819 333.116 51.0819 335.271 51.0819C335.741 51.0819 336.189 51.1032 336.658 51.1672C335.911 51.0605 335.143 50.9538 334.396 50.8685C335.058 50.9752 335.677 51.1459 336.317 51.3806C335.634 51.1032 334.951 50.8044 334.268 50.527C334.951 50.8258 335.591 51.1886 336.189 51.6154C335.613 51.1672 335.036 50.7191 334.46 50.2709C335.036 50.7404 335.548 51.2526 336.018 51.8288C335.57 51.2526 335.122 50.6764 334.674 50.1002C335.122 50.6977 335.484 51.338 335.762 52.0208C335.484 51.338 335.186 50.6551 334.908 49.9722C335.143 50.591 335.314 51.2313 335.42 51.8928C335.314 51.1459 335.207 50.3776 335.122 49.6307C335.186 50.0362 335.207 50.4203 335.207 50.8044C335.25 53.0239 336.125 55.2646 337.704 56.8438C339.176 58.3163 341.609 59.4473 343.743 59.3406C348.31 59.1272 352.365 55.5847 352.279 50.8044C352.109 41.564 344.725 34.1375 335.484 34.0095C335.186 34.0095 334.887 34.0095 334.567 34.0095C332.283 34.0095 330 34.0095 327.717 34.0095C323.555 34.0095 319.394 34.0095 315.232 34.0095C309.62 34.0095 304.029 34.0095 298.416 34.0095C291.801 34.0095 285.185 34.0095 278.569 34.0095C271.378 34.0095 264.186 34.0095 256.994 34.0095C249.653 34.0095 242.312 34.0095 234.992 34.0095C227.95 34.0095 220.907 34.0095 213.844 34.0095C207.527 34.0095 201.189 34.0095 194.872 34.0095C189.708 34.0095 184.522 34.0095 179.358 34.0095C175.772 34.0095 172.187 34.0095 168.602 34.0095C167.044 34.0095 165.465 33.9881 163.907 34.0095C157.953 34.0735 152.234 37.1892 149.246 42.4176C147.667 45.1919 147.005 48.2649 147.005 51.4233C147.005 54.1762 147.005 56.9505 147.005 59.7034C147.005 64.9532 147.005 70.1816 147.005 75.4314C147.005 82.1963 147.005 88.9612 147.005 95.7262C147.005 103.046 147.005 110.366 147.005 117.664C147.005 124.578 147.005 131.471 147.005 138.386C147.005 143.913 147.005 149.461 147.005 154.989C147.005 158.19 147.005 161.391 147.005 164.571C147.005 165.189 146.984 165.808 147.027 166.427C147.325 170.759 148.947 175.027 152.234 177.994C155.456 180.917 159.447 182.561 163.822 182.625C165.038 182.646 166.276 182.625 167.492 182.625C170.8 182.625 174.108 182.625 177.416 182.625C182.367 182.625 187.339 182.625 192.29 182.625C198.479 182.625 204.646 182.625 210.835 182.625C217.792 182.625 224.77 182.625 231.727 182.625C239.047 182.625 246.367 182.625 253.686 182.625C260.921 182.625 268.177 182.625 275.411 182.625C282.133 182.625 288.877 182.625 295.599 182.625C301.382 182.625 307.166 182.625 312.949 182.625C317.345 182.625 321.763 182.625 326.159 182.625C328.762 182.625 331.344 182.625 333.948 182.625C334.439 182.625 334.908 182.625 335.399 182.625C337.085 182.603 338.835 182.411 340.435 181.878C344.49 180.533 348.267 177.738 350.231 173.854C351.618 171.101 352.279 168.22 352.279 165.147C352.279 164.101 352.279 163.077 352.279 162.031C352.279 157.87 352.279 153.708 352.279 149.526C352.279 143.379 352.279 137.233 352.279 131.087C352.279 123.917 352.279 116.747 352.279 109.576C352.279 102.342 352.279 95.1286 352.279 87.8942C352.279 81.5774 352.279 75.2606 352.279 68.9439C352.279 64.505 352.279 60.0449 352.279 55.606C352.279 53.9842 352.279 52.3836 352.279 50.7618C352.279 46.3016 348.353 42.0122 343.743 42.2256C339.112 42.4817 335.207 46.0242 335.207 50.8044Z" fill="black"/>
<path d="M200.292 82.3886C204.795 82.3886 209.298 82.3886 213.78 82.3886C211.027 80.2973 208.295 78.2059 205.542 76.1145C207.185 81.0655 208.85 86.0165 210.493 90.9675C213.139 98.8635 215.764 106.781 218.411 114.677C219.008 116.491 219.627 118.326 220.224 120.14C220.929 122.253 222.188 124.088 224.151 125.24C225.986 126.307 228.675 126.756 230.724 126.094C232.794 125.432 234.779 124.152 235.824 122.167C236.87 120.204 237.404 117.771 236.678 115.594C235.035 110.643 233.37 105.692 231.727 100.741C229.081 92.8455 226.456 84.9282 223.81 77.0322C223.212 75.2182 222.593 73.383 221.996 71.569C220.801 67.9838 217.664 65.2949 213.758 65.2949C209.255 65.2949 204.753 65.2949 200.271 65.2949C195.811 65.2949 191.522 69.2216 191.735 73.8311C191.97 78.462 195.512 82.3886 200.292 82.3886Z" fill="black"/>
<path d="M255.308 141.032C255.458 143.828 256.375 146.431 258.381 148.437C260.323 150.379 263.033 151.511 265.786 151.511C268.539 151.511 271.25 150.379 273.192 148.437C275.176 146.453 276.179 143.807 276.265 141.032C276.435 135.377 271.42 130.618 265.893 130.576C263.204 130.554 260.366 131.643 258.445 133.563C256.375 135.655 255.458 138.151 255.308 141.032C255.202 143.145 256.333 145.599 257.805 147.072C259.278 148.544 261.71 149.675 263.844 149.569C266.042 149.462 268.347 148.736 269.884 147.072C271.463 145.343 272.253 143.38 272.381 141.032C272.381 140.968 272.381 140.883 272.402 140.819C272.295 141.566 272.189 142.334 272.103 143.081C272.146 142.868 272.189 142.697 272.274 142.483C271.996 143.166 271.698 143.849 271.42 144.532C271.484 144.404 271.548 144.297 271.612 144.191C271.164 144.767 270.716 145.343 270.268 145.919C270.396 145.749 270.524 145.642 270.695 145.493C270.119 145.941 269.542 146.389 268.966 146.837C269.073 146.752 269.18 146.688 269.308 146.645C268.625 146.922 267.942 147.221 267.259 147.499C267.451 147.413 267.643 147.37 267.856 147.328C267.11 147.434 266.341 147.541 265.594 147.627C265.744 147.605 265.872 147.605 266.021 147.627C265.274 147.52 264.506 147.413 263.759 147.328C263.972 147.37 264.143 147.413 264.357 147.499C263.674 147.221 262.991 146.922 262.308 146.645C262.436 146.709 262.543 146.773 262.649 146.837C262.073 146.389 261.497 145.941 260.921 145.493C261.091 145.621 261.198 145.749 261.348 145.919C260.899 145.343 260.451 144.767 260.003 144.191C260.088 144.297 260.153 144.404 260.195 144.532C259.918 143.849 259.619 143.166 259.342 142.483C259.427 142.676 259.47 142.868 259.512 143.081C259.406 142.334 259.299 141.566 259.214 140.819C259.235 140.968 259.235 141.096 259.214 141.246C259.32 140.499 259.427 139.731 259.512 138.984C259.47 139.197 259.427 139.368 259.342 139.581C259.619 138.898 259.918 138.215 260.195 137.533C260.131 137.661 260.067 137.767 260.003 137.874C260.451 137.298 260.899 136.722 261.348 136.145C261.22 136.316 261.091 136.423 260.921 136.572C261.497 136.124 262.073 135.676 262.649 135.228C262.543 135.313 262.436 135.377 262.308 135.42C262.991 135.142 263.674 134.844 264.357 134.566C264.165 134.652 263.972 134.694 263.759 134.737C264.506 134.63 265.274 134.524 266.021 134.438C265.872 134.459 265.744 134.459 265.594 134.438C266.341 134.545 267.11 134.652 267.856 134.737C267.643 134.694 267.472 134.652 267.259 134.566C267.942 134.844 268.625 135.142 269.308 135.42C269.18 135.356 269.073 135.292 268.966 135.228C269.542 135.676 270.119 136.124 270.695 136.572C270.524 136.444 270.417 136.316 270.268 136.145C270.716 136.722 271.164 137.298 271.612 137.874C271.527 137.767 271.463 137.661 271.42 137.533C271.698 138.215 271.996 138.898 272.274 139.581C272.189 139.389 272.146 139.197 272.103 138.984C272.21 139.731 272.317 140.499 272.402 141.246C272.402 141.182 272.402 141.096 272.381 141.032C272.253 138.77 271.506 136.636 269.884 134.993C268.411 133.52 265.978 132.389 263.844 132.496C261.646 132.603 259.342 133.328 257.805 134.993C256.311 136.615 255.18 138.77 255.308 141.032Z" fill="black"/>
<path d="M224.749 141.032C224.898 143.828 225.816 146.431 227.822 148.437C229.764 150.379 232.474 151.511 235.227 151.511C237.98 151.511 240.69 150.379 242.632 148.437C244.617 146.453 245.62 143.807 245.705 141.032C245.876 135.377 240.861 130.618 235.334 130.576C232.645 130.554 229.806 131.643 227.886 133.563C225.837 135.655 224.898 138.151 224.749 141.032C224.642 143.145 225.773 145.599 227.246 147.072C228.718 148.544 231.151 149.675 233.285 149.569C235.483 149.462 237.788 148.736 239.324 147.072C240.903 145.343 241.693 143.38 241.821 141.032C241.821 140.968 241.821 140.883 241.842 140.819C241.736 141.566 241.629 142.334 241.544 143.081C241.586 142.868 241.629 142.697 241.714 142.483C241.437 143.166 241.138 143.849 240.861 144.532C240.925 144.404 240.989 144.297 241.053 144.191C240.605 144.767 240.157 145.343 239.708 145.919C239.836 145.749 239.965 145.642 240.135 145.493C239.559 145.941 238.983 146.389 238.407 146.837C238.513 146.752 238.62 146.688 238.748 146.645C238.065 146.922 237.382 147.221 236.699 147.499C236.891 147.413 237.084 147.37 237.297 147.328C236.55 147.434 235.782 147.541 235.035 147.627C235.184 147.605 235.312 147.605 235.462 147.627C234.715 147.52 233.946 147.413 233.2 147.328C233.413 147.37 233.584 147.413 233.797 147.499C233.114 147.221 232.431 146.922 231.748 146.645C231.876 146.709 231.983 146.773 232.09 146.837C231.514 146.389 230.937 145.941 230.361 145.493C230.532 145.621 230.639 145.749 230.788 145.919C230.34 145.343 229.892 144.767 229.444 144.191C229.529 144.297 229.593 144.404 229.636 144.532C229.358 143.849 229.06 143.166 228.782 142.483C228.867 142.676 228.91 142.868 228.953 143.081C228.846 142.334 228.739 141.566 228.654 140.819C228.675 140.968 228.675 141.096 228.654 141.246C228.761 140.499 228.867 139.731 228.953 138.984C228.91 139.197 228.867 139.368 228.782 139.581C229.06 138.898 229.358 138.215 229.636 137.533C229.572 137.661 229.508 137.767 229.444 137.874C229.892 137.298 230.34 136.722 230.788 136.145C230.66 136.316 230.532 136.423 230.361 136.572C230.937 136.124 231.514 135.676 232.09 135.228C231.983 135.313 231.876 135.377 231.748 135.42C232.431 135.142 233.114 134.844 233.797 134.566C233.605 134.652 233.413 134.694 233.2 134.737C233.946 134.63 234.715 134.524 235.462 134.438C235.312 134.459 235.184 134.459 235.035 134.438C235.782 134.545 236.55 134.652 237.297 134.737C237.084 134.694 236.913 134.652 236.699 134.566C237.382 134.844 238.065 135.142 238.748 135.42C238.62 135.356 238.513 135.292 238.407 135.228C238.983 135.676 239.559 136.124 240.135 136.572C239.965 136.444 239.858 136.316 239.708 136.145C240.157 136.722 240.605 137.298 241.053 137.874C240.968 137.767 240.903 137.661 240.861 137.533C241.138 138.215 241.437 138.898 241.714 139.581C241.629 139.389 241.586 139.197 241.544 138.984C241.65 139.731 241.757 140.499 241.842 141.246C241.842 141.182 241.842 141.096 241.821 141.032C241.693 138.77 240.946 136.636 239.324 134.993C237.852 133.52 235.419 132.389 233.285 132.496C231.087 132.603 228.782 133.328 227.246 134.993C225.773 136.615 224.621 138.77 224.749 141.032Z" fill="black"/>
<path d="M258.189 208.446C258.189 198.416 258.189 188.365 258.189 178.335C258.189 176.926 258.189 175.518 258.189 174.109C258.189 169.649 254.263 165.36 249.653 165.573C245.022 165.786 241.117 169.329 241.117 174.109C241.117 184.139 241.117 194.191 241.117 204.221C241.117 205.629 241.117 207.038 241.117 208.446C241.117 212.906 245.044 217.196 249.653 216.982C254.284 216.769 258.189 213.226 258.189 208.446Z" fill="black"/>
<path d="M213.566 216.983C221.74 216.983 229.934 216.983 238.108 216.983C251.04 216.983 263.973 216.983 276.884 216.983C279.828 216.983 282.773 216.983 285.718 216.983C290.179 216.983 294.468 213.056 294.255 208.446C294.041 203.815 290.499 199.91 285.718 199.91C277.545 199.91 269.35 199.91 261.177 199.91C248.245 199.91 235.312 199.91 222.401 199.91C219.456 199.91 216.511 199.91 213.566 199.91C209.106 199.91 204.817 203.837 205.03 208.446C205.244 213.056 208.786 216.983 213.566 216.983Z" fill="black"/>
<path d="M272.765 89.8791C269.863 97.3696 266.96 104.881 264.079 112.372C263.652 113.439 263.247 114.527 262.82 115.594C265.573 113.503 268.305 111.412 271.058 109.32C266.277 109.32 261.476 109.32 256.695 109.32C249.056 109.32 241.416 109.32 233.776 109.32C232.026 109.32 230.255 109.32 228.505 109.32C231.258 111.412 233.989 113.503 236.742 115.594C234.267 108.083 231.791 100.571 229.316 93.0588C228.974 91.9918 228.611 90.9461 228.27 89.8791C225.517 93.4856 222.785 97.0922 220.033 100.677C226.947 100.677 233.861 100.677 240.754 100.677C251.659 100.677 262.585 100.677 273.49 100.677C275.987 100.677 278.484 100.677 280.981 100.677C285.441 100.677 289.731 96.7507 289.517 92.1412C289.304 87.5103 285.761 83.605 280.981 83.605C274.067 83.605 267.152 83.605 260.259 83.605C249.354 83.605 238.428 83.605 227.523 83.605C225.026 83.605 222.529 83.605 220.033 83.605C214.719 83.605 210.045 89.0895 211.795 94.4033C214.271 101.915 216.746 109.427 219.222 116.939C219.563 118.006 219.926 119.052 220.267 120.119C221.441 123.704 224.621 126.393 228.505 126.393C233.285 126.393 238.087 126.393 242.867 126.393C250.507 126.393 258.147 126.393 265.786 126.393C267.536 126.393 269.308 126.393 271.058 126.393C272.957 126.393 274.749 125.71 276.222 124.557C277.78 123.341 278.569 121.975 279.274 120.119C282.176 112.628 285.078 105.116 287.959 97.6257C288.386 96.5586 288.792 95.4703 289.218 94.4033C289.965 92.4613 289.368 89.559 288.365 87.8304C287.319 86.0591 285.292 84.3732 283.264 83.9037C281.088 83.4129 278.633 83.5196 276.691 84.7574C274.707 86.0591 273.597 87.7024 272.765 89.8791Z" fill="black"/>
</svg>
