<svg width="500" height="250" viewBox="0 0 500 250" fill="none" xmlns="http://www.w3.org/2000/svg">
<path d="M311.689 142.349H304.9V159.321H311.689V142.349Z" fill="black"/>
<path d="M226.828 189.871V230.604H281.139V189.871H257.378V213.632H237.011V189.871H226.828Z" fill="black"/>
<path d="M250.59 189.871H243.801V206.843H250.59V189.871Z" fill="black"/>
<path d="M287.928 189.871V230.604H342.239V189.871H318.478V213.632H298.111V189.871H287.928Z" fill="black"/>
<path d="M311.689 189.871H304.9V206.843H311.689V189.871Z" fill="black"/>
<path d="M318.478 166.11H298.111V142.349H287.928V183.082H342.239V145.743C342.239 143.876 340.711 142.349 338.844 142.349H318.478V166.11Z" fill="black"/>
<path d="M281.139 142.349H257.378V166.11H237.011V142.349H226.828V183.082H281.139V142.349Z" fill="black"/>
<path d="M189.489 189.871H182.7V206.843H189.489V189.871Z" fill="black"/>
<path d="M250.59 142.349H243.801V159.321H250.59V142.349Z" fill="black"/>
<path d="M349.028 237.393H158.939V244.181H349.028V237.393Z" fill="black"/>
<path d="M189.489 142.349H182.7V159.321H189.489V142.349Z" fill="black"/>
<path d="M220.039 142.349H196.278V166.11H175.911V142.349H169.122C167.256 142.349 165.728 143.876 165.728 145.743V183.082H220.039V142.349Z" fill="black"/>
<path d="M165.728 189.871V230.604H220.039V189.871H196.278V213.632H175.911V189.871H165.728Z" fill="black"/>
<path d="M173.556 91.5861L171.406 98.0254L201.912 108.211L204.062 101.772L173.556 91.5861Z" fill="black"/>
<path d="M153.214 101.802L151.064 108.242L181.57 118.427L183.72 111.988L153.214 101.802Z" fill="black"/>
<path d="M305.697 64.4558L303.547 70.895L334.053 81.0808L336.203 74.6416L305.697 64.4558Z" fill="black"/>
<path d="M302.293 47.4939L300.143 53.9331L320.467 60.7192L322.617 54.2799L302.293 47.4939Z" fill="black"/>
<path d="M268.596 111.997L153.287 56.9694C151.597 56.1759 150.91 54.1939 151.705 52.5028C151.852 52.1765 152.089 51.8794 152.354 51.6119L157.789 46.1424C160.831 43.0807 165.509 42.2937 169.394 44.2048L200.477 59.6122L227.82 40.5279C229.594 39.2775 232.054 39.7128 233.332 41.5149C234.432 43.0807 234.261 45.2138 232.902 46.5812L213.792 65.8135L269.006 99.7041L277.551 94.5492C279.503 93.3574 282.081 93.97 283.301 95.95C284.283 97.5755 284.052 99.7089 282.693 101.076L272.444 111.391C271.44 112.342 269.871 112.615 268.596 111.997Z" fill="black"/>
</svg>
