<svg width="500" height="250" viewBox="0 0 500 250" fill="none" xmlns="http://www.w3.org/2000/svg">
<path d="M311.625 121.854H304.836V138.827H311.625V121.854Z" fill="black"/>
<path d="M226.764 169.377V210.111H281.075V169.377H257.314V193.138H236.947V169.377H226.764Z" fill="black"/>
<path d="M250.526 169.377H243.737V186.35H250.526V169.377Z" fill="black"/>
<path d="M287.864 169.377V210.111H342.175V169.377H318.414V193.138H298.047V169.377H287.864Z" fill="black"/>
<path d="M311.625 169.377H304.836V186.35H311.625V169.377Z" fill="black"/>
<path d="M318.414 145.616H298.047V121.854H287.864V162.588H342.175V125.249C342.175 123.382 340.647 121.854 338.78 121.854H318.414V145.616Z" fill="black"/>
<path d="M281.075 121.854H257.314V145.616H236.947V121.854H226.764V162.588H281.075V121.854Z" fill="black"/>
<path d="M189.425 169.377H182.636V186.35H189.425V169.377Z" fill="black"/>
<path d="M250.526 121.854H243.737V138.827H250.526V121.854Z" fill="black"/>
<path d="M348.964 216.899H158.875V223.688H348.964V216.899Z" fill="black"/>
<path d="M189.425 121.854H182.636V138.827H189.425V121.854Z" fill="black"/>
<path d="M219.975 121.854H196.214V145.616H175.847V121.854H169.058C167.192 121.854 165.664 123.382 165.664 125.249V162.588H219.975V121.854Z" fill="black"/>
<path d="M165.664 169.377V210.111H219.975V169.377H196.214V193.138H175.847V169.377H165.664Z" fill="black"/>
<path d="M173.492 71.092L171.342 77.5312L201.848 87.717L203.998 81.2778L173.492 71.092Z" fill="black"/>
<path d="M153.15 81.3083L151 87.7476L181.506 97.9334L183.656 91.4941L153.15 81.3083Z" fill="black"/>
<path d="M305.633 43.9621L303.483 50.4014L333.989 60.5872L336.139 54.1479L305.633 43.9621Z" fill="black"/>
<path d="M302.229 27.0002L300.079 33.4395L320.403 40.2255L322.553 33.7863L302.229 27.0002Z" fill="black"/>
<path d="M191.716 59.1426L313.916 101.912C315.698 102.549 317.608 101.615 318.244 99.8334C318.371 99.494 318.414 99.1121 318.414 98.7302V90.923C318.414 86.5527 315.613 82.6491 311.455 81.2489L278.105 70.1321L272.08 36.909C271.698 34.7451 269.619 33.3024 267.412 33.6843C265.503 34.0238 264.103 35.6786 264.103 37.6304V65.0829L200.203 50.02L197.742 40.2186C197.19 37.9698 194.899 36.5696 192.608 37.1212C190.741 37.5879 189.383 39.2851 189.383 41.2369V55.9603C189.425 57.3605 190.359 58.6759 191.716 59.1426Z" fill="black"/>
</svg>
