<svg width="500" height="250" viewBox="0 0 500 250" fill="none" xmlns="http://www.w3.org/2000/svg">
<path d="M249.532 138.632L230.005 119.153L235.085 114.074L249.46 128.449L282.429 95.5768C275.091 87.2603 264.824 82.1001 253.772 81.1738C242.72 80.2475 231.737 83.6267 223.117 90.6057C214.497 97.5847 208.907 107.624 207.513 118.627C206.12 129.63 209.031 140.746 215.639 149.653C222.246 158.561 232.04 164.572 242.974 166.43C253.908 168.288 265.137 165.851 274.317 159.626C283.496 153.402 289.916 143.871 292.236 133.026C294.555 122.18 292.595 110.858 286.765 101.423L249.532 138.632Z" fill="black"/>
<path d="M340.248 53.4433C301.098 53.4433 270.933 31.4725 252.485 13.0477C251.796 12.376 250.871 12 249.909 12C248.947 12 248.022 12.376 247.333 13.0477C228.909 31.4725 198.72 53.4433 159.594 53.4433C158.641 53.4433 157.727 53.822 157.053 54.496C156.379 55.1699 156 56.0841 156 57.0372V104.189C156 141.111 171.574 173.48 201.044 197.871L247.525 236.374C247.684 236.483 247.853 236.58 248.028 236.661L248.412 236.877L248.867 237.02C249.132 237.1 249.405 237.148 249.681 237.164H249.993C250.269 237.148 250.542 237.1 250.807 237.02L251.263 236.877L251.67 236.661C251.846 236.58 252.014 236.483 252.173 236.374L298.798 197.871C310.155 188.594 319.831 177.434 327.406 164.879L327.861 164.423L328.005 163.872C338.533 145.755 344.003 125.143 343.842 104.189V57.0372C343.842 56.0841 343.463 55.1699 342.789 54.496C342.115 53.822 341.201 53.4433 340.248 53.4433ZM289.622 96.8578C296.893 107.819 299.628 121.174 297.252 134.112C294.876 147.05 287.573 158.561 276.881 166.223C266.189 173.885 252.941 177.1 239.926 175.193C226.911 173.285 215.144 166.402 207.101 155.994C199.058 145.585 195.367 132.462 196.804 119.387C198.241 106.312 204.694 94.3035 214.806 85.8902C224.917 77.4768 237.898 73.3141 251.017 74.2783C264.135 75.2425 276.369 81.2583 285.141 91.0596L301.673 74.5276L306.753 79.607L289.622 96.8578Z" fill="black"/>
</svg>
