<svg  viewBox="0 0 1000 600"  xmlns="http://www.w3.org/2000/svg">
<path d="M185.472 365.28V432H174.528V386.304L154.176 432H146.592L126.144 386.304V432H115.2V365.28H127.008L150.432 417.6L173.76 365.28H185.472Z" fill="#EF672C"/>
<path d="M205.424 372.096C203.44 372.096 201.776 371.424 200.432 370.08C199.088 368.736 198.416 367.072 198.416 365.088C198.416 363.104 199.088 361.44 200.432 360.096C201.776 358.752 203.44 358.08 205.424 358.08C207.344 358.08 208.976 358.752 210.32 360.096C211.664 361.44 212.336 363.104 212.336 365.088C212.336 367.072 211.664 368.736 210.32 370.08C208.976 371.424 207.344 372.096 205.424 372.096ZM210.8 379.104V432H199.856V379.104H210.8Z" fill="#EF672C"/>
<path d="M251.857 378.24C256.017 378.24 259.729 379.104 262.993 380.832C266.321 382.56 268.913 385.12 270.769 388.512C272.625 391.904 273.553 396 273.553 400.8V432H262.705V402.432C262.705 397.696 261.521 394.08 259.153 391.584C256.785 389.024 253.553 387.744 249.457 387.744C245.361 387.744 242.097 389.024 239.665 391.584C237.297 394.08 236.113 397.696 236.113 402.432V432H225.169V379.104H236.113V385.152C237.905 382.976 240.177 381.28 242.929 380.064C245.745 378.848 248.721 378.24 251.857 378.24Z" fill="#EF672C"/>
<path d="M335.417 379.104V432H324.473V425.76C322.745 427.936 320.472 429.664 317.656 430.944C314.904 432.16 311.96 432.768 308.824 432.768C304.664 432.768 300.921 431.904 297.593 430.176C294.329 428.448 291.737 425.888 289.817 422.496C287.961 419.104 287.033 415.008 287.033 410.208V379.104H297.88V408.576C297.88 413.312 299.064 416.96 301.432 419.52C303.8 422.016 307.032 423.264 311.128 423.264C315.224 423.264 318.456 422.016 320.824 419.52C323.256 416.96 324.473 413.312 324.473 408.576V379.104H335.417Z" fill="#EF672C"/>
<path d="M362.624 388.032V417.312C362.624 419.296 363.072 420.736 363.968 421.632C364.928 422.464 366.528 422.88 368.768 422.88H375.488V432H366.848C361.92 432 358.144 430.848 355.52 428.544C352.896 426.24 351.584 422.496 351.584 417.312V388.032H345.344V379.104H351.584V365.952H362.624V379.104H375.488V388.032H362.624Z" fill="#EF672C"/>
<path d="M434.055 404.256C434.055 406.24 433.927 408.032 433.671 409.632H393.255C393.575 413.856 395.143 417.248 397.959 419.808C400.775 422.368 404.231 423.648 408.327 423.648C414.215 423.648 418.375 421.184 420.807 416.256H432.615C431.015 421.12 428.103 425.12 423.879 428.256C419.719 431.328 414.535 432.864 408.327 432.864C403.271 432.864 398.727 431.744 394.695 429.504C390.727 427.2 387.591 424 385.287 419.904C383.047 415.744 381.927 410.944 381.927 405.504C381.927 400.064 383.015 395.296 385.191 391.2C387.431 387.04 390.535 383.84 394.503 381.6C398.535 379.36 403.143 378.24 408.327 378.24C413.319 378.24 417.767 379.328 421.671 381.504C425.575 383.68 428.615 386.752 430.791 390.72C432.967 394.624 434.055 399.136 434.055 404.256ZM422.631 400.8C422.567 396.768 421.127 393.536 418.311 391.104C415.495 388.672 412.007 387.456 407.847 387.456C404.071 387.456 400.839 388.672 398.151 391.104C395.463 393.472 393.863 396.704 393.351 400.8H422.631Z" fill="#EF672C"/>
<path d="M508.857 378.24C513.017 378.24 516.729 379.104 519.993 380.832C523.321 382.56 525.913 385.12 527.769 388.512C529.689 391.904 530.649 396 530.649 400.8V432H519.801V402.432C519.801 397.696 518.617 394.08 516.249 391.584C513.881 389.024 510.649 387.744 506.553 387.744C502.457 387.744 499.193 389.024 496.761 391.584C494.393 394.08 493.209 397.696 493.209 402.432V432H482.361V402.432C482.361 397.696 481.177 394.08 478.809 391.584C476.441 389.024 473.209 387.744 469.113 387.744C465.017 387.744 461.753 389.024 459.321 391.584C456.953 394.08 455.769 397.696 455.769 402.432V432H444.825V379.104H455.769V385.152C457.561 382.976 459.833 381.28 462.585 380.064C465.337 378.848 468.281 378.24 471.417 378.24C475.641 378.24 479.417 379.136 482.745 380.928C486.073 382.72 488.633 385.312 490.425 388.704C492.025 385.504 494.521 382.976 497.913 381.12C501.305 379.2 504.953 378.24 508.857 378.24Z" fill="#EF672C"/>
<path d="M540.927 405.312C540.927 400 542.015 395.296 544.191 391.2C546.431 387.104 549.439 383.936 553.215 381.696C557.055 379.392 561.279 378.24 565.887 378.24C570.047 378.24 573.663 379.072 576.735 380.736C579.871 382.336 582.367 384.352 584.223 386.784V379.104H595.263V432H584.223V424.128C582.367 426.624 579.839 428.704 576.639 430.368C573.439 432.032 569.791 432.864 565.695 432.864C561.151 432.864 556.991 431.712 553.215 429.408C549.439 427.04 546.431 423.776 544.191 419.616C542.015 415.392 540.927 410.624 540.927 405.312ZM584.223 405.504C584.223 401.856 583.455 398.688 581.919 396C580.447 393.312 578.495 391.264 576.063 389.856C573.631 388.448 571.007 387.744 568.191 387.744C565.375 387.744 562.751 388.448 560.319 389.856C557.887 391.2 555.903 393.216 554.367 395.904C552.895 398.528 552.159 401.664 552.159 405.312C552.159 408.96 552.895 412.16 554.367 414.912C555.903 417.664 557.887 419.776 560.319 421.248C562.815 422.656 565.439 423.36 568.191 423.36C571.007 423.36 573.631 422.656 576.063 421.248C578.495 419.84 580.447 417.792 581.919 415.104C583.455 412.352 584.223 409.152 584.223 405.504Z" fill="#EF672C"/>
<path d="M636.325 378.24C640.485 378.24 644.197 379.104 647.461 380.832C650.789 382.56 653.381 385.12 655.237 388.512C657.093 391.904 658.022 396 658.022 400.8V432H647.174V402.432C647.174 397.696 645.99 394.08 643.622 391.584C641.254 389.024 638.022 387.744 633.926 387.744C629.83 387.744 626.566 389.024 624.134 391.584C621.766 394.08 620.582 397.696 620.582 402.432V432H609.638V379.104H620.582V385.152C622.374 382.976 624.646 381.28 627.398 380.064C630.214 378.848 633.189 378.24 636.325 378.24Z" fill="#EF672C"/>
<path d="M709.224 365.088C716.52 365.088 722.824 366.464 728.136 369.216C733.512 371.904 737.608 375.776 740.424 380.832C743.304 385.888 744.744 391.84 744.744 398.688C744.744 405.536 743.304 411.488 740.424 416.544C737.608 421.536 733.512 425.376 728.136 428.064C722.824 430.688 716.52 432 709.224 432H688.392V365.088H709.224ZM709.224 424.8C717.864 424.8 724.456 422.528 729 417.984C733.544 413.376 735.816 406.944 735.816 398.688C735.816 390.368 733.512 383.872 728.904 379.2C724.36 374.528 717.8 372.192 709.224 372.192H697.128V424.8H709.224Z" fill="#484750"/>
<path d="M804.267 403.68C804.267 405.344 804.171 407.104 803.979 408.96H761.931C762.251 414.144 764.011 418.208 767.211 421.152C770.475 424.032 774.411 425.472 779.019 425.472C782.795 425.472 785.931 424.608 788.427 422.88C790.987 421.088 792.779 418.72 793.803 415.776H803.211C801.803 420.832 798.987 424.96 794.763 428.16C790.539 431.296 785.291 432.864 779.019 432.864C774.027 432.864 769.547 431.744 765.579 429.504C761.675 427.264 758.603 424.096 756.363 420C754.123 415.84 753.003 411.04 753.003 405.6C753.003 400.16 754.091 395.392 756.267 391.296C758.443 387.2 761.483 384.064 765.387 381.888C769.355 379.648 773.899 378.528 779.019 378.528C784.011 378.528 788.427 379.616 792.267 381.792C796.107 383.968 799.051 386.976 801.099 390.816C803.211 394.592 804.267 398.88 804.267 403.68ZM795.243 401.856C795.243 398.528 794.507 395.68 793.035 393.312C791.563 390.88 789.547 389.056 786.987 387.84C784.491 386.56 781.707 385.92 778.635 385.92C774.219 385.92 770.443 387.328 767.307 390.144C764.235 392.96 762.475 396.864 762.027 401.856H795.243Z" fill="#484750"/>
<path d="M824.534 360.96V432H815.798V360.96H824.534Z" fill="#484750"/>
<path d="M843.935 370.848C842.271 370.848 840.863 370.272 839.711 369.12C838.559 367.968 837.983 366.56 837.983 364.896C837.983 363.232 838.559 361.824 839.711 360.672C840.863 359.52 842.271 358.944 843.935 358.944C845.535 358.944 846.879 359.52 847.967 360.672C849.119 361.824 849.695 363.232 849.695 364.896C849.695 366.56 849.119 367.968 847.967 369.12C846.879 370.272 845.535 370.848 843.935 370.848ZM848.159 379.392V432H839.423V379.392H848.159Z" fill="#484750"/>
<path d="M882.632 423.936L898.952 379.392H908.264L887.624 432H877.448L856.808 379.392H866.216L882.632 423.936Z" fill="#484750"/>
<path d="M964.861 403.68C964.861 405.344 964.765 407.104 964.573 408.96H922.525C922.845 414.144 924.605 418.208 927.805 421.152C931.069 424.032 935.005 425.472 939.613 425.472C943.389 425.472 946.525 424.608 949.021 422.88C951.581 421.088 953.373 418.72 954.397 415.776H963.805C962.397 420.832 959.581 424.96 955.357 428.16C951.133 431.296 945.885 432.864 939.613 432.864C934.621 432.864 930.141 431.744 926.173 429.504C922.269 427.264 919.197 424.096 916.957 420C914.717 415.84 913.597 411.04 913.597 405.6C913.597 400.16 914.685 395.392 916.861 391.296C919.037 387.2 922.077 384.064 925.981 381.888C929.949 379.648 934.493 378.528 939.613 378.528C944.605 378.528 949.021 379.616 952.861 381.792C956.701 383.968 959.645 386.976 961.693 390.816C963.805 394.592 964.861 398.88 964.861 403.68ZM955.837 401.856C955.837 398.528 955.101 395.68 953.629 393.312C952.157 390.88 950.141 389.056 947.581 387.84C945.085 386.56 942.301 385.92 939.229 385.92C934.813 385.92 931.037 387.328 927.901 390.144C924.829 392.96 923.069 396.864 922.621 401.856H955.837Z" fill="#484750"/>
<path d="M985.128 387.936C986.664 384.928 988.84 382.592 991.656 380.928C994.536 379.264 998.024 378.432 1002.12 378.432V387.456H999.816C990.024 387.456 985.128 392.768 985.128 403.392V432H976.392V379.392H985.128V387.936Z" fill="#484750"/>
<path d="M1057.52 379.392L1025.84 456.768H1016.81L1027.18 431.424L1005.96 379.392H1015.66L1032.17 422.016L1048.49 379.392H1057.52Z" fill="#484750"/>
<path d="M395.134 219.292L387.232 215.617C386.212 215.139 384.932 215.536 384.487 216.498C384.102 217.333 384.585 218.288 385.492 218.71L393.308 222.346C386.377 233.439 376.734 242.753 365.112 249.765C364.338 250.94 362.971 251.679 361.261 251.98C355.3 255.198 348.883 257.849 342.076 259.837C334.943 261.92 327.725 263.173 320.545 263.68L320.527 263.398C319.219 263.523 317.899 263.54 316.599 263.518L316.621 263.885C316.309 263.894 315.997 263.914 315.685 263.921C301.414 264.255 287.439 261.607 274.799 256.465L278.522 249.882C278.98 249.074 278.735 248.047 277.864 247.568C276.864 247.015 275.564 247.353 275.051 248.259L271.267 254.95C258.629 249.224 247.499 240.929 238.988 230.559L245.867 226.467C246.718 225.962 247.079 224.966 246.593 224.173C246.033 223.259 244.711 222.987 243.757 223.557L236.759 227.718C232.512 222.04 229.015 215.804 226.456 209.062C224.384 203.599 223.037 198.076 222.34 192.57L230.589 191.983C231.601 191.91 232.462 191.209 232.492 190.318C232.527 189.273 231.547 188.44 230.368 188.539L221.978 189.136C220.996 176.36 223.577 163.771 229.136 152.328L236.706 155.403C236.973 155.511 237.254 155.562 237.532 155.562C238.402 155.562 239.23 155.051 239.455 154.208C239.667 153.407 239.14 152.591 238.289 152.245L230.758 149.186C236.896 137.911 245.998 127.898 257.514 120.121L262.459 126.166C262.843 126.636 263.446 126.886 264.058 126.886C264.465 126.886 264.879 126.774 265.231 126.543C266.107 125.971 266.219 124.847 265.582 124.068L260.677 118.073C267.771 113.699 275.568 110.133 284.207 107.609C292.365 105.227 299.799 103.889 308.967 103.557V111.159C308.967 112.111 310.173 112.883 311.259 112.883C312.343 112.883 313.55 112.111 313.55 111.159V103.498C325.468 103.477 341.385 106.301 354.327 111.985C354.819 112.201 355.186 112.438 355.672 112.661L351.288 119.383C350.755 120.213 351.06 121.264 352.006 121.734C352.311 121.885 352.63 121.957 352.957 121.957C353.642 121.957 354.301 121.642 354.663 121.081L359.018 114.318C371.699 120.743 382.264 129.595 390.045 140.217L382.456 144.223C381.569 144.691 381.151 145.681 381.602 146.497C381.949 147.125 382.652 147.475 383.377 147.475C383.721 147.475 384.07 147.396 384.387 147.229L392.088 143.162C395.261 147.934 397.907 153.02 399.941 158.383C402.543 165.241 404.04 172.259 404.496 179.286L395.494 179.57C394.201 179.601 393.232 180.544 393.703 181.794C393.967 182.494 394.737 182.957 395.578 182.957H395.6L404.639 182.785C404.765 195.196 401.584 207.855 395.134 219.292V219.292ZM411.129 155.115C405.117 139.27 394.552 125.865 381.153 115.609L385.49 110.996L387.346 112.34C389.064 113.585 390.562 113.738 391.743 112.483L394.819 109.212C396.002 107.956 395.637 106.597 393.919 105.353L377.417 93.4004C375.7 92.1562 374.386 92.3021 373.204 93.5578L370.128 96.8281C368.946 98.0839 369.126 99.1442 370.843 100.388L372.977 101.933L368.281 106.924L370.07 108.219C355.584 99.8384 338.8 94.6633 321.276 93.4358L321.061 85.1336L324.264 85.0691C327.232 85.0107 328.894 84.022 328.837 81.8518L328.692 76.2044C328.636 74.0352 326.919 72.943 323.952 73.0023L295.452 73.5709C292.486 73.6293 291.307 74.7798 291.363 76.9491L291.509 82.5965C291.565 84.7658 292.799 85.697 295.765 85.6386L299.449 85.5643L299.666 93.9514C293.296 94.6925 286.916 95.9473 280.596 97.7929C271.182 100.543 262.54 104.395 254.747 109.1L251.001 104.601L252.943 103.356C254.741 102.203 255.283 100.968 254.187 99.6527L251.336 96.2286C250.241 94.9135 248.65 94.8879 246.852 96.0402L229.575 107.118C227.776 108.271 227.612 109.424 228.707 110.739L231.558 114.162C232.654 115.477 233.868 115.587 235.667 114.434L237.899 113.002L242.127 118.079C214.069 141.542 202.237 177.981 215.271 212.331C229.961 251.051 271.749 275.301 316.006 274.265C327.197 274.004 338.55 272.123 349.659 268.453C372.956 260.755 392.392 245.807 404.144 226.552C417.683 204.371 420.147 178.884 411.129 155.115" fill="#EF672C"/>
<path d="M312.636 119.201L308.064 183.315L269.164 155.586L305.453 192.679C306.588 193.839 308.243 194.506 309.984 194.506H311.67C315.116 194.506 317.847 191.955 317.631 188.937L312.636 119.201Z" fill="#EF672C"/>
<path d="M425.481 285.339C424.716 287.384 423.495 289.578 421.758 291.174C418.321 294.33 413.24 296.369 408.176 296.383C396.458 296.414 388.017 289.246 386.048 280.04C386.048 280.04 386.041 279.443 386.033 279.443H397.055C396.997 279.443 396.957 280.71 396.957 281.058C396.957 285.049 400.863 288.58 405.68 288.58C410.496 288.58 414.402 284.901 414.402 280.91C414.402 280.562 414.361 279.443 414.304 279.443H426.715C427.276 279.443 425.63 284.94 425.481 285.339V285.339ZM263.702 289.906C262.937 291.951 261.716 294.07 259.978 295.666C256.541 298.824 251.46 300.381 246.397 300.395C234.772 300.426 226.38 293.64 224.326 284.453H236.016C235.939 284.453 235.89 285.673 235.89 286.076C235.89 290.067 239.794 293.524 244.611 293.524C249.428 293.524 253.333 289.956 253.333 285.964C253.333 285.562 253.284 284.453 253.207 284.453H265.048C265.043 285.289 263.829 289.566 263.702 289.906V289.906ZM441.78 278.588C444.932 239.701 392.762 224.279 392.762 224.279C384.699 204.228 365.351 195.23 363.619 194.492C363.313 194.239 363.47 193.606 363.923 193.58L366.402 193.342C369.457 193.164 371.786 191.446 372.412 189.171C373.57 184.96 374.511 177.82 370.899 170.572C369.865 168.499 367.304 167.22 364.606 167.376L345.895 168.458C341.713 168.7 337.663 169.781 334.097 171.609L317.042 180.356C315.473 181.16 314.571 182.62 314.7 184.145C314.7 184.145 315.037 188.126 315.038 188.139C315.104 189.002 306.01 189.981 305.012 190.369C300.737 192.031 299.873 197.88 305.5 198.517C308.288 198.832 310.258 197.27 312.373 196.078C314.53 194.862 316.933 193.824 319.218 192.768C324.344 190.401 329.607 188.245 334.743 185.893C335.822 185.399 336.395 184.455 336.535 183.44C336.76 181.816 339.459 181.469 340.244 182.979C340.795 184.035 340.839 185.315 339.586 186.712L321.651 194.815C320.914 195.147 320.904 196.006 321.618 196.369C329.19 200.218 335.702 205.672 340.521 211.83C347.695 220.999 353.584 233.219 349.793 244.369C346.132 255.143 333.187 263.155 319.698 263.155C302.186 263.155 287.991 250.799 287.991 235.556C287.991 229.299 290.389 224.551 294.426 219.93C297.475 216.439 294.458 212.639 289.178 212.639H231.96C223.84 212.639 213.549 215.941 213.549 222.517V226.887C208.51 230 206.517 233.494 203.982 237.144L108 240.552L200.809 243.826C200.151 245.333 199.694 246.843 199.234 248.342L119.704 251.157L197.969 253.924C197.633 255.835 197.432 257.696 197.305 259.472L132.545 261.763L197.154 264.047C197.153 265.079 197.175 266.066 197.207 266.995C197.366 271.52 191.554 270.684 187.917 270.813C183.03 270.985 178.142 271.158 173.254 271.331C163.479 271.677 153.704 272.023 143.929 272.369C160.781 272.964 177.634 273.559 194.485 274.156C192.026 274.075 193.689 290.881 194.224 292.349C194.897 294.197 195.408 294.489 197.424 292.791V292.654C200.447 287.525 209.176 286.663 216.55 285.694L216.59 286.37C216.574 286.981 216.68 287.377 216.763 287.983C216.875 289.205 217.22 290.394 217.541 291.592C218.144 293.409 218.971 295.178 220.008 296.855L157.611 298.525L222.651 300.263C223.141 300.794 223.67 301.291 224.203 301.782L170.419 303.22L228.047 304.762C229.047 305.415 230.088 306.013 231.168 306.559L180.376 307.917L239.373 309.496C247.633 311.389 256.774 310.622 264.482 306.68C268.556 304.597 271.702 301.922 273.984 299.268C277.251 295.469 279.345 290.607 279.89 285.959C280.005 284.969 280.033 284.453 280.033 284.453H279.94C279.923 280.279 279.643 278.882 279.142 276.632C303.991 276.632 331.341 276.19 356.031 276.188C356.002 276.681 355.98 276.957 355.976 277.454C355.973 277.844 356.007 278.381 356.019 278.381C356.119 281.916 355.265 284.692 356.318 287.581C356.991 289.427 357.67 289.72 359.685 288.023V287.913C361.701 282.797 370.85 281.948 378.391 280.986L378.401 281.952C378.385 282.562 378.474 282.958 378.559 283.564C378.67 284.786 379.008 285.975 379.328 287.173C380 289.197 380.952 291.155 382.167 292.996C382.167 292.996 384.34 296.232 386.104 297.653C386.235 297.742 386.359 297.83 386.459 297.917C386.459 297.917 389.411 300.078 391.701 301.497C392.448 301.917 393.209 302.32 393.991 302.681C395.42 303.018 397.392 305.459 405.438 305.898L406.746 305.935C413.392 306.462 420.261 305.33 426.26 302.261C430.334 300.177 433.481 297.503 435.762 294.849C439.03 291.049 441.125 286.484 441.669 281.836C441.785 280.847 441.813 280.627 441.813 280.627C441.813 280.627 441.789 279.593 441.781 279.227C441.779 279.158 441.772 278.588 441.78 278.588" fill="#484750"/>
<path d="M231.168 306.559L180.376 307.917L237.52 309.445L236.584 308.801C234.264 308.074 232.943 307.235 231.168 306.559Z" fill="#EF672C"/>
<path d="M108 240.552L200.657 243.821C201.517 241.563 202.605 239.315 203.967 237.144L108 240.552" fill="#EF672C"/>
<path d="M187.917 270.813C183.03 270.986 178.142 271.158 173.254 271.331C163.479 271.677 153.704 272.023 143.929 272.369C160.624 272.958 177.32 273.547 194.013 274.138L195.132 270.218C193.144 271.007 190.131 270.734 187.917 270.813" fill="#EF672C"/>
<path d="M219.311 296.873L157.611 298.525L222.651 300.264C222.76 300.382 222.877 300.493 222.989 300.608C222.239 299.765 221.387 298.681 220.787 297.893L219.311 296.873" fill="#EF672C"/>
<path d="M170.419 303.22L228.047 304.762C228.194 304.859 228.349 304.945 228.499 305.04C226.71 303.797 224.956 302.276 224.203 301.782L170.419 303.22" fill="#EF672C"/>
<path d="M199.211 248.343L119.704 251.157L197.969 253.924C197.633 255.835 197.432 257.696 197.305 259.472L132.545 261.763L196.895 264.039L197.33 262.514C197.45 258.609 197.83 253.584 199.211 248.343" fill="#EF672C"/>
<path d="M339.573 304.137L405.438 305.898C397.391 305.459 395.42 303.018 393.991 302.681L339.573 304.137Z" fill="#EF672C"/>
<path d="M316.708 294.744L384.881 296.571V296.52C384.881 296.905 385.568 297.287 386.104 297.653C384.34 296.233 382.167 292.996 382.167 292.996L316.708 294.744Z" fill="#EF672C"/>
<path d="M329.569 299.441L390.963 301.082C391.203 301.226 391.454 301.359 391.701 301.497C389.411 300.079 386.458 297.917 386.458 297.917L329.569 299.441" fill="#EF672C"/>
</svg>
